<svg width="53" height="28" viewBox="0 0 53 28" fill="none" xmlns="http://www.w3.org/2000/svg">
<path fill-rule="evenodd" clip-rule="evenodd" d="M26.2059 4.87431C23.1381 4.87431 20.6471 7.42279 20.6471 10.561C20.6471 13.6992 23.1383 16.2477 26.2059 16.2477C29.2736 16.2477 31.7648 13.6992 31.7648 10.561C31.7648 7.42279 29.2736 4.87431 26.2059 4.87431ZM26.2059 6.49946C28.3977 6.49946 30.1763 8.31897 30.1763 10.5612C30.1763 12.8034 28.3977 14.6229 26.2059 14.6229C24.0141 14.6229 22.2355 12.8034 22.2355 10.5612C22.2355 8.31897 24.0141 6.49946 26.2059 6.49946Z" fill="black"/>
<path fill-rule="evenodd" clip-rule="evenodd" d="M34.9412 27.6213C35.3796 27.6213 35.7354 27.2574 35.7354 26.8089C35.7354 21.4286 31.4654 17.0603 26.2059 17.0603C20.9465 17.0603 16.6765 21.4285 16.6765 26.8089C16.6765 27.2574 17.0323 27.6213 17.4706 27.6213H34.9412ZM34.1074 25.9965H18.3045C18.7031 21.894 22.0909 18.6851 26.2057 18.6851C30.3206 18.6851 33.7081 21.894 34.1074 25.9965Z" fill="black"/>
<path fill-rule="evenodd" clip-rule="evenodd" d="M9.52942 0C6.46162 0 3.97058 2.54848 3.97058 5.68671C3.97058 8.82493 6.46176 11.3734 9.52942 11.3734C12.5971 11.3734 15.0883 8.82493 15.0883 5.68671C15.0883 2.54848 12.5971 0 9.52942 0ZM9.52942 1.62514C11.7212 1.62514 13.4998 3.44466 13.4998 5.68689C13.4998 7.92913 11.7212 9.74864 9.52942 9.74864C7.3376 9.74864 5.559 7.92913 5.559 5.68689C5.559 3.44466 7.3376 1.62514 9.52942 1.62514Z" fill="black"/>
<path fill-rule="evenodd" clip-rule="evenodd" d="M18.2647 22.747C18.7031 22.747 19.0588 22.3831 19.0588 21.9346C19.0588 16.5543 14.7888 12.186 9.52942 12.186C4.27 12.186 0 16.5542 0 21.9346C0 22.3831 0.355756 22.747 0.794118 22.747H18.2647ZM17.4309 21.1222H1.62794C2.0266 17.0197 5.41434 13.8107 9.52919 13.8107C13.644 13.8107 17.0316 17.0197 17.4309 21.1222Z" fill="black"/>
<path fill-rule="evenodd" clip-rule="evenodd" d="M42.8825 0C39.8147 0 37.3236 2.54848 37.3236 5.68671C37.3236 8.82493 39.8148 11.3734 42.8825 11.3734C45.9501 11.3734 48.4413 8.82493 48.4413 5.68671C48.4413 2.54848 45.9501 0 42.8825 0ZM42.8825 1.62514C45.0743 1.62514 46.8529 3.44466 46.8529 5.68689C46.8529 7.92913 45.0743 9.74864 42.8825 9.74864C40.6907 9.74864 38.9121 7.92913 38.9121 5.68689C38.9121 3.44466 40.6907 1.62514 42.8825 1.62514Z" fill="black"/>
<path fill-rule="evenodd" clip-rule="evenodd" d="M51.6178 22.747C52.0562 22.747 52.4119 22.3831 52.4119 21.9346C52.4119 16.5543 48.1419 12.186 42.8825 12.186C37.6231 12.186 33.3531 16.5542 33.3531 21.9346C33.3531 22.3831 33.7088 22.747 34.1472 22.747H51.6178ZM50.784 21.1222H34.981C35.3797 17.0197 38.7674 13.8107 42.8823 13.8107C46.9971 13.8107 50.3846 17.0197 50.784 21.1222Z" fill="black"/>
</svg>
