<svg width="20" height="26" viewBox="0 0 20 26" fill="none" xmlns="http://www.w3.org/2000/svg">
<path fill-rule="evenodd" clip-rule="evenodd" d="M7.99996 26H12C12.552 26 13 25.552 13 25C13 24.448 12.552 24 12 24H7.99996C7.44795 24 6.99996 24.448 6.99996 25C6.99996 25.552 7.44795 26 7.99996 26ZM7.01293 3.15999C4.21493 4.09101 1.99995 6.38587 1.99995 9.99999V17.764L0.828982 20.1059C0.518937 20.7258 0.551971 21.4619 0.916932 22.0508C1.28099 22.641 1.92499 22.9999 2.61807 22.9999H17.3821C18.0752 22.9999 18.7191 22.641 19.0832 22.0508C19.4482 21.4619 19.4812 20.7258 19.1712 20.1059L18.0002 17.764V9.99999C18.0002 6.38593 15.7852 4.09084 12.9872 3.15999C12.9962 3.10798 13.0002 3.05485 13.0002 2.99994C13.0002 1.34394 11.6562 -6.10352e-05 10.0002 -6.10352e-05C8.34417 -6.10352e-05 7.00017 1.34394 7.00017 2.99994C7.00017 3.05485 7.00419 3.10797 7.01312 3.15999H7.01293ZM17.3821 21H2.61807L3.89396 18.4471C3.96405 18.308 3.99998 18.1549 3.99998 18V9.99998C3.99998 6.42009 7.0241 4.685 9.99999 4.685C12.9759 4.685 16 6.42003 16 9.99998V18C16 18.1549 16.0359 18.308 16.106 18.4471L17.3821 21ZM10.9644 2.73199C10.8474 2.31011 10.4592 2.00004 10.0003 2.00004C9.54138 2.00004 9.15322 2.31009 9.03624 2.73199C9.35634 2.70096 9.67819 2.68511 10.0003 2.68511C10.3224 2.68511 10.6443 2.70096 10.9644 2.73199Z" fill="black"/>
</svg>
